<svg width="713" height="509" viewBox="0 0 713 509" fill="none" xmlns="http://www.w3.org/2000/svg">
<path d="M272.42 269.34C272.42 273.6 272.12 278.64 269.96 282.42C267.2 287.28 261.74 290.34 256.16 290.34C250.4 290.34 245.18 287.04 243.02 281.64C242.48 280.26 242 278.7 242 277.2C242 274.32 244.22 273.06 246.86 273.06C248.3 273.06 249.92 273.54 250.88 274.68C251.9 275.94 251.54 277.62 251.9 279.06C252.44 281.04 254 283.44 256.28 283.44C262.22 283.44 262.82 273.48 262.82 269.28C262.82 263.52 262.28 257.7 262.28 251.94C262.28 248.16 263.6 246 267.68 246C270.08 246 272.24 247.08 272.24 249.78C272.24 250.8 272 251.76 272 252.78C272 258.3 272.42 263.82 272.42 269.34ZM281.494 278.76C281.494 272.94 281.194 266.94 282.334 261.18C282.694 259.32 284.734 258.66 286.414 258.66C288.634 258.66 291.514 259.8 291.514 262.38C291.514 267.3 290.974 271.5 290.974 276.42C290.974 277.86 290.554 280.5 291.334 282C291.514 282.36 291.634 282.66 291.634 283.08C291.634 283.62 291.454 284.16 291.274 284.7C290.494 286.8 288.754 287.7 286.534 287.7C282.394 287.7 281.434 285.3 281.434 281.64C281.434 280.68 281.494 279.72 281.494 278.76ZM286.714 253.74C284.434 253.74 281.974 252.48 281.974 249.84C281.974 247.26 284.434 246 286.714 246C289.054 246 291.514 247.26 291.514 249.84C291.514 252.48 289.054 253.74 286.714 253.74ZM310.188 249.24C318.108 249.24 328.188 252.78 328.188 262.32C328.188 268.92 322.368 273.9 316.608 276C315.168 276.54 313.728 276.78 312.228 277.2C311.868 277.32 311.568 277.44 311.568 277.86C311.568 281.16 311.688 284.46 311.688 287.76C311.688 290.7 309.468 291.78 306.768 291.78C304.728 291.78 302.088 290.94 301.788 288.6C301.668 287.64 301.668 286.62 301.668 285.66C301.668 277.32 301.848 269.04 301.368 260.7L301.068 255.36C301.008 254.64 300.828 253.92 300.828 253.2C300.828 249.18 307.368 249.24 310.188 249.24ZM312.348 269.64C312.528 269.64 312.708 269.58 312.828 269.52C315.768 268.26 318.348 265.62 318.348 262.26C318.348 258.9 315.348 256.32 312.048 256.32C311.328 256.32 311.028 256.98 311.028 257.58C311.028 261.06 311.028 265.14 311.448 268.62C311.508 269.16 311.808 269.64 312.348 269.64ZM343.515 289.74C341.115 289.74 337.755 289.5 337.455 286.44C337.275 284.1 337.215 281.76 337.215 279.36C337.215 273.54 337.695 267.66 337.995 261.84C338.175 257.88 338.175 254.52 338.535 250.56C338.715 248.28 340.995 247.62 342.975 247.62C346.815 247.62 349.335 247.62 354.195 247.62C356.595 247.62 360.555 247.08 360.555 250.92C360.555 254.1 357.675 254.34 355.455 254.34C353.295 254.34 351.135 254.04 348.975 254.04C348.195 254.04 347.655 254.4 347.595 255.24C347.415 258.18 347.115 261.9 347.115 264.78C347.115 265.26 347.355 265.68 347.895 265.68C348.915 265.68 350.115 265.02 351.315 265.02C352.995 265.02 355.635 266.22 355.635 268.14C355.635 270.96 349.395 272.64 347.295 273.36C346.695 273.6 346.575 273.84 346.575 274.5C346.575 276.72 346.515 278.88 346.515 281.1C346.515 283.62 346.515 283.2 349.035 283.2H355.635C357.795 283.2 359.655 283.5 359.655 286.44C359.655 289.5 357.855 289.74 355.635 289.74H343.515ZM396.199 290.7C394.879 290.7 393.439 290.34 392.359 289.5C390.679 288.18 390.079 285.42 389.359 283.5C388.279 280.62 382.639 263.82 381.019 263.1C380.779 263.1 380.719 263.52 380.659 263.7C379.639 268.92 379.399 274.8 379.399 280.14C379.399 284.16 379.999 288.24 374.419 288.24C371.419 288.24 369.559 286.8 369.559 283.68C369.559 282.54 369.739 281.46 369.799 280.32C370.099 271.98 370.699 263.7 372.499 255.48C372.979 253.26 373.279 251.28 375.679 250.44C376.279 250.2 376.999 250.08 377.659 250.08C379.039 250.08 380.419 250.56 381.679 251.22C390.859 256.08 393.739 269.88 394.819 270.54C395.059 270.48 395.059 270.06 395.059 269.94C395.839 264.84 396.199 259.68 396.559 254.58C396.739 252.42 396.259 249.42 398.179 247.92C399.199 247.14 400.459 246.84 401.659 246.84C404.599 246.84 406.519 248.04 406.519 251.1C406.519 253.2 406.159 255.24 405.979 257.34C405.319 265.68 404.419 273.9 402.379 282C401.839 284.16 401.479 286.92 400.219 288.78C399.319 290.16 397.819 290.7 396.199 290.7ZM416.156 257.52C416.156 255.6 419.156 253.92 420.656 253.14C424.796 250.92 429.536 249.9 434.096 248.88C434.516 248.76 434.936 248.76 435.356 248.76C437.336 248.76 440.036 249.84 440.036 252.18C440.036 253.74 438.356 254.82 437.036 255.24C434.456 256.08 431.816 256.44 429.236 257.28C428.876 257.4 428.456 257.52 428.096 257.64C427.556 257.82 427.016 258.6 427.016 259.2C427.016 260.52 427.076 261.9 427.076 263.22C427.076 263.82 427.496 264.3 428.096 264.3C428.216 264.3 428.276 264.24 428.396 264.24C430.616 263.76 432.776 263.16 435.056 263.16C437.096 263.16 440.096 264 440.096 266.52C440.096 268.32 438.176 269.58 436.616 269.82C433.736 270.24 430.796 270.66 427.976 271.38C427.436 271.5 427.196 271.74 427.196 272.34C427.196 272.82 427.316 273.24 427.316 273.72C427.436 276 427.436 278.22 427.496 280.5C427.556 282.42 427.736 284.4 427.736 286.32C427.736 288.9 425.396 289.86 423.116 289.86C421.196 289.86 418.616 289.08 418.256 286.8C418.016 285.24 418.016 283.56 418.016 282C418.016 279.24 417.956 276.48 417.836 273.72C417.836 273.42 417.896 273.18 417.896 272.88C417.896 271.68 415.496 271.62 415.496 269.34C415.496 267.24 417.656 267.24 417.656 265.74C417.656 264.06 417.596 262.38 417.596 260.7C417.596 259.44 416.156 258.84 416.156 257.52ZM464.55 287.1C454.53 287.1 448.17 280.5 448.17 270.6C448.17 261.42 453.45 251.4 463.11 249.78C465.03 249.48 466.95 249.24 468.93 249.24C478.83 249.24 483.87 255.9 483.87 265.38C483.87 276.9 476.79 287.1 464.55 287.1ZM465.57 256.56C460.47 256.56 457.77 266.16 457.77 270.24C457.77 274.74 459.27 280.32 464.73 280.32C471.21 280.32 474.33 271.08 474.33 265.68C474.33 263.28 473.37 256.56 470.19 256.56C469.47 256.56 468.81 256.74 468.09 256.74C467.25 256.74 466.41 256.56 465.57 256.56ZM508.521 252.96C515.961 252.96 524.961 258.48 524.961 267.06C524.961 276.96 515.841 286.56 505.821 286.56C497.181 286.56 491.061 279.72 491.061 271.26C491.061 261.6 498.561 252.96 508.521 252.96ZM506.001 279.6C510.921 279.6 515.121 271.68 515.121 267.36C515.121 263.82 511.221 258.12 506.481 260.46C502.761 262.2 500.781 267.66 500.781 271.5C500.781 274.38 502.461 279.6 506.001 279.6ZM542.935 250.08C552.355 250.08 562.195 254.64 562.195 265.38C562.195 277.5 550.855 284.88 539.935 286.38C539.215 286.5 538.495 286.56 537.775 286.56C534.715 286.56 533.035 285 533.035 281.94C533.035 272.82 533.095 263.7 533.095 254.58C533.095 249.36 539.275 250.08 542.935 250.08ZM542.815 277.08C542.815 277.8 543.415 278.28 544.075 277.92C548.875 275.52 552.475 270.9 552.475 265.38C552.475 263.28 551.875 261.18 550.435 259.56C548.755 257.7 546.715 257.52 544.435 257.04C543.475 256.8 542.815 257.16 542.815 258.36V277.08Z" fill="white"/>
</svg>
