<svg width="713" height="509" viewBox="0 0 713 509" fill="none" xmlns="http://www.w3.org/2000/svg">
<path d="M225.92 338.48C225.92 342.74 225.62 347.78 223.46 351.56C220.7 356.42 215.24 359.48 209.66 359.48C203.9 359.48 198.68 356.18 196.52 350.78C195.98 349.4 195.5 347.84 195.5 346.34C195.5 343.46 197.72 342.2 200.36 342.2C201.8 342.2 203.42 342.68 204.38 343.82C205.4 345.08 205.04 346.76 205.4 348.2C205.94 350.18 207.5 352.58 209.78 352.58C215.72 352.58 216.32 342.62 216.32 338.42C216.32 332.66 215.78 326.84 215.78 321.08C215.78 317.3 217.1 315.14 221.18 315.14C223.58 315.14 225.74 316.22 225.74 318.92C225.74 319.94 225.5 320.9 225.5 321.92C225.5 327.44 225.92 332.96 225.92 338.48ZM234.994 347.9C234.994 342.08 234.694 336.08 235.834 330.32C236.194 328.46 238.234 327.8 239.914 327.8C242.134 327.8 245.014 328.94 245.014 331.52C245.014 336.44 244.474 340.64 244.474 345.56C244.474 347 244.054 349.64 244.834 351.14C245.014 351.5 245.134 351.8 245.134 352.22C245.134 352.76 244.954 353.3 244.774 353.84C243.994 355.94 242.254 356.84 240.034 356.84C235.894 356.84 234.934 354.44 234.934 350.78C234.934 349.82 234.994 348.86 234.994 347.9ZM240.214 322.88C237.934 322.88 235.474 321.62 235.474 318.98C235.474 316.4 237.934 315.14 240.214 315.14C242.554 315.14 245.014 316.4 245.014 318.98C245.014 321.62 242.554 322.88 240.214 322.88ZM263.688 318.38C271.608 318.38 281.688 321.92 281.688 331.46C281.688 338.06 275.868 343.04 270.108 345.14C268.668 345.68 267.228 345.92 265.728 346.34C265.368 346.46 265.068 346.58 265.068 347C265.068 350.3 265.188 353.6 265.188 356.9C265.188 359.84 262.968 360.92 260.268 360.92C258.228 360.92 255.588 360.08 255.288 357.74C255.168 356.78 255.168 355.76 255.168 354.8C255.168 346.46 255.348 338.18 254.868 329.84L254.568 324.5C254.508 323.78 254.328 323.06 254.328 322.34C254.328 318.32 260.868 318.38 263.688 318.38ZM265.848 338.78C266.028 338.78 266.208 338.72 266.328 338.66C269.268 337.4 271.848 334.76 271.848 331.4C271.848 328.04 268.848 325.46 265.548 325.46C264.828 325.46 264.528 326.12 264.528 326.72C264.528 330.2 264.528 334.28 264.948 337.76C265.008 338.3 265.308 338.78 265.848 338.78ZM297.015 358.88C294.615 358.88 291.255 358.64 290.955 355.58C290.775 353.24 290.715 350.9 290.715 348.5C290.715 342.68 291.195 336.8 291.495 330.98C291.675 327.02 291.675 323.66 292.035 319.7C292.215 317.42 294.495 316.76 296.475 316.76C300.315 316.76 302.835 316.76 307.695 316.76C310.095 316.76 314.055 316.22 314.055 320.06C314.055 323.24 311.175 323.48 308.955 323.48C306.795 323.48 304.635 323.18 302.475 323.18C301.695 323.18 301.155 323.54 301.095 324.38C300.915 327.32 300.615 331.04 300.615 333.92C300.615 334.4 300.855 334.82 301.395 334.82C302.415 334.82 303.615 334.16 304.815 334.16C306.495 334.16 309.135 335.36 309.135 337.28C309.135 340.1 302.895 341.78 300.795 342.5C300.195 342.74 300.075 342.98 300.075 343.64C300.075 345.86 300.015 348.02 300.015 350.24C300.015 352.76 300.015 352.34 302.535 352.34H309.135C311.295 352.34 313.155 352.64 313.155 355.58C313.155 358.64 311.355 358.88 309.135 358.88H297.015ZM349.699 359.84C348.379 359.84 346.939 359.48 345.859 358.64C344.179 357.32 343.579 354.56 342.859 352.64C341.779 349.76 336.139 332.96 334.519 332.24C334.279 332.24 334.219 332.66 334.159 332.84C333.139 338.06 332.899 343.94 332.899 349.28C332.899 353.3 333.499 357.38 327.919 357.38C324.919 357.38 323.059 355.94 323.059 352.82C323.059 351.68 323.239 350.6 323.299 349.46C323.599 341.12 324.199 332.84 325.999 324.62C326.479 322.4 326.779 320.42 329.179 319.58C329.779 319.34 330.499 319.22 331.159 319.22C332.539 319.22 333.919 319.7 335.179 320.36C344.359 325.22 347.239 339.02 348.319 339.68C348.559 339.62 348.559 339.2 348.559 339.08C349.339 333.98 349.699 328.82 350.059 323.72C350.239 321.56 349.759 318.56 351.679 317.06C352.699 316.28 353.959 315.98 355.159 315.98C358.099 315.98 360.019 317.18 360.019 320.24C360.019 322.34 359.659 324.38 359.479 326.48C358.819 334.82 357.919 343.04 355.879 351.14C355.339 353.3 354.979 356.06 353.719 357.92C352.819 359.3 351.319 359.84 349.699 359.84ZM369.656 326.66C369.656 324.74 372.656 323.06 374.156 322.28C378.296 320.06 383.036 319.04 387.596 318.02C388.016 317.9 388.436 317.9 388.856 317.9C390.836 317.9 393.536 318.98 393.536 321.32C393.536 322.88 391.856 323.96 390.536 324.38C387.956 325.22 385.316 325.58 382.736 326.42C382.376 326.54 381.956 326.66 381.596 326.78C381.056 326.96 380.516 327.74 380.516 328.34C380.516 329.66 380.576 331.04 380.576 332.36C380.576 332.96 380.996 333.44 381.596 333.44C381.716 333.44 381.776 333.38 381.896 333.38C384.116 332.9 386.276 332.3 388.556 332.3C390.596 332.3 393.596 333.14 393.596 335.66C393.596 337.46 391.676 338.72 390.116 338.96C387.236 339.38 384.296 339.8 381.476 340.52C380.936 340.64 380.696 340.88 380.696 341.48C380.696 341.96 380.816 342.38 380.816 342.86C380.936 345.14 380.936 347.36 380.996 349.64C381.056 351.56 381.236 353.54 381.236 355.46C381.236 358.04 378.896 359 376.616 359C374.696 359 372.116 358.22 371.756 355.94C371.516 354.38 371.516 352.7 371.516 351.14C371.516 348.38 371.456 345.62 371.336 342.86C371.336 342.56 371.396 342.32 371.396 342.02C371.396 340.82 368.996 340.76 368.996 338.48C368.996 336.38 371.156 336.38 371.156 334.88C371.156 333.2 371.096 331.52 371.096 329.84C371.096 328.58 369.656 327.98 369.656 326.66ZM418.05 356.24C408.03 356.24 401.67 349.64 401.67 339.74C401.67 330.56 406.95 320.54 416.61 318.92C418.53 318.62 420.45 318.38 422.43 318.38C432.33 318.38 437.37 325.04 437.37 334.52C437.37 346.04 430.29 356.24 418.05 356.24ZM419.07 325.7C413.97 325.7 411.27 335.3 411.27 339.38C411.27 343.88 412.77 349.46 418.23 349.46C424.71 349.46 427.83 340.22 427.83 334.82C427.83 332.42 426.87 325.7 423.69 325.7C422.97 325.7 422.31 325.88 421.59 325.88C420.75 325.88 419.91 325.7 419.07 325.7ZM462.021 322.1C469.461 322.1 478.461 327.62 478.461 336.2C478.461 346.1 469.341 355.7 459.321 355.7C450.681 355.7 444.561 348.86 444.561 340.4C444.561 330.74 452.061 322.1 462.021 322.1ZM459.501 348.74C464.421 348.74 468.621 340.82 468.621 336.5C468.621 332.96 464.721 327.26 459.981 329.6C456.261 331.34 454.281 336.8 454.281 340.64C454.281 343.52 455.961 348.74 459.501 348.74ZM496.435 319.22C505.855 319.22 515.695 323.78 515.695 334.52C515.695 346.64 504.355 354.02 493.435 355.52C492.715 355.64 491.995 355.7 491.275 355.7C488.215 355.7 486.535 354.14 486.535 351.08C486.535 341.96 486.595 332.84 486.595 323.72C486.595 318.5 492.775 319.22 496.435 319.22ZM496.315 346.22C496.315 346.94 496.915 347.42 497.575 347.06C502.375 344.66 505.975 340.04 505.975 334.52C505.975 332.42 505.375 330.32 503.935 328.7C502.255 326.84 500.215 326.66 497.935 326.18C496.975 325.94 496.315 326.3 496.315 327.5V346.22Z" fill="white"/>
<path d="M371.2 232.8C371.2 239.9 370.7 248.3 367.1 254.6C362.5 262.7 353.4 267.8 344.1 267.8C334.5 267.8 325.8 262.3 322.2 253.3C321.3 251 320.5 248.4 320.5 245.9C320.5 241.1 324.2 239 328.6 239C331 239 333.7 239.8 335.3 241.7C337 243.8 336.4 246.6 337 249C337.9 252.3 340.5 256.3 344.3 256.3C354.2 256.3 355.2 239.7 355.2 232.7C355.2 223.1 354.3 213.4 354.3 203.8C354.3 197.5 356.5 193.9 363.3 193.9C367.3 193.9 370.9 195.7 370.9 200.2C370.9 201.9 370.5 203.5 370.5 205.2C370.5 214.4 371.2 223.6 371.2 232.8Z" fill="white"/>
<path d="M351.6 175.1C351.6 171.9 356.6 169.1 359.1 167.8C366 164.1 373.9 162.4 381.5 160.7C382.2 160.5 382.9 160.5 383.6 160.5C386.9 160.5 391.4 162.3 391.4 166.2C391.4 168.8 388.6 170.6 386.4 171.3C382.1 172.7 377.7 173.3 373.4 174.7C372.8 174.9 372.1 175.1 371.5 175.3C370.6 175.6 369.7 176.9 369.7 177.9C369.7 180.1 369.8 182.4 369.8 184.6C369.8 185.6 370.5 186.4 371.5 186.4C371.7 186.4 371.8 186.3 372 186.3C375.7 185.5 379.3 184.5 383.1 184.5C386.5 184.5 391.5 185.9 391.5 190.1C391.5 193.1 388.3 195.2 385.7 195.6C380.9 196.3 376 197 371.3 198.2C370.4 198.4 370 198.8 370 199.8C370 200.6 370.2 201.3 370.2 202.1C370.4 205.9 370.4 209.6 370.5 213.4C370.6 216.6 370.9 219.9 370.9 223.1C370.9 227.4 367 229 363.2 229C360 229 355.7 227.7 355.1 223.9C354.7 221.3 354.7 218.5 354.7 215.9C354.7 211.3 354.6 206.7 354.4 202.1C354.4 201.6 354.5 201.2 354.5 200.7C354.5 198.7 350.5 198.6 350.5 194.8C350.5 191.3 354.1 191.3 354.1 188.8C354.1 186 354 183.2 354 180.4C354 178.3 351.6 177.3 351.6 175.1Z" fill="white"/>
<path d="M358.8 135.4C361.7 135.4 366.3 136.4 366.3 140.1C366.3 141.2 366 142.3 366 143.4C366 148.9 363.7 151.1 358.1 151.1C355.5 151.1 350.5 149.9 350.5 146.6C350.5 146.4 350.5 146.1 350.6 145.9C351.8 140.8 349.7 135.4 358.8 135.4Z" fill="white"/>
<path d="M379.8 135.4C382.7 135.4 387.3 136.4 387.3 140.1C387.3 141.2 387 142.3 387 143.4C387 148.9 384.7 151.1 379.1 151.1C376.5 151.1 371.5 149.9 371.5 146.6C371.5 146.4 371.5 146.1 371.6 145.9C372.8 140.8 370.7 135.4 379.8 135.4Z" fill="white"/>
</svg>
