<svg width="1539" height="1522" viewBox="0 0 1539 1522" fill="none" xmlns="http://www.w3.org/2000/svg">
<path d="M913.614 1143.95C913.614 1220.64 907.656 1311.37 864.757 1379.42C809.942 1466.91 701.502 1522 590.68 1522C476.282 1522 372.61 1462.59 329.711 1365.38C318.986 1340.54 309.453 1312.45 309.453 1285.45C309.453 1233.6 353.543 1210.92 405.976 1210.92C434.575 1210.92 466.749 1219.56 485.815 1240.09C506.073 1262.77 498.923 1293.01 506.073 1318.93C516.798 1354.58 547.781 1397.78 593.063 1397.78C711.035 1397.78 722.952 1218.48 722.952 1142.87C722.952 1039.18 712.227 934.407 712.227 830.715C712.227 762.666 738.443 723.781 819.475 723.781C867.14 723.781 910.039 743.224 910.039 791.83C910.039 810.192 905.273 827.474 905.273 845.836C905.273 945.209 913.614 1044.58 913.614 1143.95Z" fill="#FC6847"/>
<path d="M679.75 521.196C679.75 486.684 739.305 456.485 769.082 442.465C851.269 402.56 945.366 384.225 1035.89 365.891C1044.23 363.734 1052.57 363.734 1060.9 363.734C1100.21 363.734 1153.81 383.147 1153.81 425.209C1153.81 453.25 1120.46 472.663 1094.25 480.213C1043.04 495.312 990.628 501.783 939.41 516.882C932.263 519.039 923.926 521.196 916.779 523.353C906.059 526.588 895.339 540.609 895.339 551.394C895.339 575.121 896.53 599.927 896.53 623.654C896.53 634.439 904.868 643.067 916.779 643.067C919.161 643.067 920.353 641.989 922.735 641.989C966.806 633.36 1009.69 622.575 1054.95 622.575C1095.44 622.575 1155 637.675 1155 682.972C1155 715.327 1116.88 737.976 1085.92 742.29C1028.74 749.839 970.379 757.389 914.397 770.331C903.677 772.488 898.913 776.802 898.913 787.587C898.913 796.215 901.295 803.764 901.295 812.393C903.677 853.376 903.677 893.28 904.868 934.264C906.059 968.776 909.633 1004.37 909.633 1038.88C909.633 1085.25 863.18 1102.51 817.918 1102.51C779.802 1102.51 728.585 1088.49 721.438 1047.51C716.674 1019.47 716.674 989.267 716.674 961.226C716.674 911.615 715.483 862.004 713.1 812.393C713.1 807 714.292 802.686 714.292 797.293C714.292 775.723 666.647 774.645 666.647 733.662C666.647 695.914 709.527 695.914 709.527 668.951C709.527 638.753 708.336 608.555 708.336 578.357C708.336 555.708 679.75 544.923 679.75 521.196Z" fill="#FC6847"/>
<path d="M765.598 92C800.172 92 855.012 102.818 855.012 142.842C855.012 154.741 851.436 166.64 851.436 178.539C851.436 238.035 824.015 261.834 757.253 261.834C726.257 261.834 666.647 248.853 666.647 213.155C666.647 210.992 666.648 207.746 667.84 205.583C682.146 150.414 657.11 92 765.598 92Z" fill="#FC6847"/>
<path d="M1015.36 92C1049.93 92 1104.77 102.818 1104.77 142.842C1104.77 154.741 1101.19 166.64 1101.19 178.539C1101.19 238.035 1073.77 261.834 1007.01 261.834C976.014 261.834 916.405 248.853 916.405 213.155C916.405 210.992 916.405 207.746 917.597 205.583C931.903 150.414 906.867 92 1015.36 92Z" fill="#FC6847"/>
</svg>
